<svg width="602" height="668" viewBox="0 0 602 668" fill="none" xmlns="http://www.w3.org/2000/svg">
<g clip-path="url(#clip0_295_17)">
<path d="M415.646 642.666C415.771 623.212 415.892 555.691 415.892 528.958C415.892 490.324 402.696 465.045 387.896 452.249C479.775 441.983 576.233 406.987 576.233 247.804C576.233 202.574 560.3 165.574 533.837 136.624C538.075 126.141 552.225 83.9994 529.725 26.9578C529.725 26.9578 495.158 15.8244 416.383 69.4744C383.417 60.2536 348.171 55.6911 313.117 55.5078C278.058 55.6911 242.817 60.2578 209.846 69.4744C131.071 15.8244 96.5083 26.9578 96.5083 26.9578C74.0083 83.9994 88.1583 126.141 92.3958 136.624C65.9333 165.574 50 202.574 50 247.804C50 406.987 146.454 441.983 238.333 452.249C223.537 465.045 210.338 490.324 210.338 528.958C210.338 555.691 210.462 623.212 210.583 642.666M25 475.999C66.4125 478.929 90.2917 516.562 90.2917 516.562C127.1 579.891 186.867 561.574 210.354 550.999" stroke="black" stroke-width="50" stroke-linecap="round" stroke-linejoin="round"/>
</g>
<defs>
<clipPath id="clip0_295_17">
<rect width="602" height="668" fill="white"/>
</clipPath>
</defs>
</svg>
