<svg xmlns="http://www.w3.org/2000/svg" width="32" height="32" viewBox="0 0 14 14" fill="none"><path d="M11.9697 2.65784V11.3423C11.9697 11.5409 11.8908 11.7313 11.7504 11.8717C11.61 12.0121 11.4196 12.091 11.221 12.091H2.53654C2.33799 12.091 2.14756 12.0121 2.00716 11.8717C1.86676 11.7313 1.78788 11.5409 1.78788 11.3423V2.65784C1.78788 2.45928 1.86676 2.26886 2.00716 2.12846C2.14756 1.98806 2.33799 1.90918 2.53654 1.90918H11.221C11.4196 1.90918 11.61 1.98806 11.7504 2.12846C11.8908 2.26886 11.9697 2.45928 11.9697 2.65784ZM4.78253 5.80223H3.28521V10.5937H4.78253V5.80223ZM4.91729 4.15517C4.91808 4.04191 4.89655 3.9296 4.85394 3.82466C4.81132 3.71972 4.74846 3.6242 4.66892 3.54356C4.58939 3.46291 4.49476 3.39873 4.39042 3.35466C4.28608 3.31059 4.17408 3.2875 4.06082 3.28672H4.03387C3.80354 3.28672 3.58265 3.37822 3.41978 3.54108C3.25692 3.70395 3.16542 3.92484 3.16542 4.15517C3.16542 4.3855 3.25692 4.60639 3.41978 4.76926C3.58265 4.93212 3.80354 5.02362 4.03387 5.02362C4.14714 5.0264 4.25985 5.00685 4.36555 4.96606C4.47126 4.92527 4.56789 4.86406 4.64993 4.78591C4.73197 4.70776 4.79781 4.61422 4.84369 4.51062C4.88956 4.40702 4.91457 4.29539 4.91729 4.18212V4.15517ZM10.4724 7.68287C10.4724 6.24244 9.55601 5.68244 8.64563 5.68244C8.34756 5.66752 8.05078 5.731 7.7849 5.86657C7.51902 6.00214 7.29333 6.20505 7.13034 6.45506H7.08841V5.80223H5.68093V10.5937H7.17825V8.04522C7.15661 7.78422 7.23883 7.52521 7.40704 7.32448C7.57526 7.12374 7.81588 6.99748 8.07665 6.97314H8.13355C8.6097 6.97314 8.96307 7.2726 8.96307 8.02725V10.5937H10.4604L10.4724 7.68287Z" fill="#282B3E"></path></svg>