<svg width="304" height="200" viewBox="0 0 304 200" fill="none" xmlns="http://www.w3.org/2000/svg">
<path d="M86.732 75.3C86.732 79 87.132 82 87.832 84.2C88.632 86.4 89.632 88.8 91.032 91.4C91.532 92.2 91.732 93 91.732 93.7C91.732 94.7 91.132 95.7 89.832 96.7L83.532 100.9C82.632 101.5 81.732 101.8 80.932 101.8C79.932 101.8 78.932 101.3 77.932 100.4C76.532 98.9 75.332 97.3 74.332 95.7C73.332 94 72.332 92.1 71.232 89.8C63.432 99 53.632 103.6 41.832 103.6C33.432 103.6 26.732 101.2 21.832 96.4C16.932 91.6 14.432 85.2 14.432 77.2C14.432 68.7 17.432 61.8 23.532 56.6C29.632 51.4 37.732 48.8 48.032 48.8C51.432 48.8 54.932 49.1 58.632 49.6C62.332 50.1 66.132 50.9 70.132 51.8V44.5C70.132 36.9 68.532 31.6 65.432 28.5C62.232 25.4 56.832 23.9 49.132 23.9C45.632 23.9 42.032 24.3 38.332 25.2C34.632 26.1 31.032 27.2 27.532 28.6C25.932 29.3 24.732 29.7 24.032 29.9C23.332 30.1 22.832 30.2 22.432 30.2C21.032 30.2 20.332 29.2 20.332 27.1V22.2C20.332 20.6 20.532 19.4 21.032 18.7C21.532 18 22.432 17.3 23.832 16.6C27.332 14.8 31.532 13.3 36.432 12.1C41.332 10.8 46.532 10.2 52.032 10.2C63.932 10.2 72.632 12.9 78.232 18.3C83.732 23.7 86.532 31.9 86.532 42.9V75.3H86.732ZM46.132 90.5C49.432 90.5 52.832 89.9 56.432 88.7C60.032 87.5 63.232 85.3 65.932 82.3C67.532 80.4 68.732 78.3 69.332 75.9C69.932 73.5 70.332 70.6 70.332 67.2V63C67.432 62.3 64.332 61.7 61.132 61.3C57.932 60.9 54.832 60.7 51.732 60.7C45.032 60.7 40.132 62 36.832 64.7C33.532 67.4 31.932 71.2 31.932 76.2C31.932 80.9 33.132 84.4 35.632 86.8C38.032 89.3 41.532 90.5 46.132 90.5ZM126.432 101.3C124.632 101.3 123.432 101 122.632 100.3C121.832 99.7 121.132 98.3 120.532 96.4L97.032 19.1C96.432 17.1 96.132 15.8 96.132 15.1C96.132 13.5 96.932 12.6 98.532 12.6H108.332C110.232 12.6 111.532 12.9 112.232 13.6C113.032 14.2 113.632 15.6 114.232 17.5L131.032 83.7L146.632 17.5C147.132 15.5 147.732 14.2 148.532 13.6C149.332 13 150.732 12.6 152.532 12.6H160.532C162.432 12.6 163.732 12.9 164.532 13.6C165.332 14.2 166.032 15.6 166.432 17.5L182.232 84.5L199.532 17.5C200.132 15.5 200.832 14.2 201.532 13.6C202.332 13 203.632 12.6 205.432 12.6H214.732C216.332 12.6 217.232 13.4 217.232 15.1C217.232 15.6 217.132 16.1 217.032 16.7C216.932 17.3 216.732 18.1 216.332 19.2L192.232 96.5C191.632 98.5 190.932 99.8 190.132 100.4C189.332 101 188.032 101.4 186.332 101.4H177.732C175.832 101.4 174.532 101.1 173.732 100.4C172.932 99.7 172.232 98.4 171.832 96.4L156.332 31.9L140.932 96.3C140.432 98.3 139.832 99.6 139.032 100.3C138.232 101 136.832 101.3 135.032 101.3H126.432ZM254.932 104C249.732 104 244.532 103.4 239.532 102.2C234.532 101 230.632 99.7 228.032 98.2C226.432 97.3 225.332 96.3 224.932 95.4C224.532 94.5 224.332 93.5 224.332 92.6V87.5C224.332 85.4 225.132 84.4 226.632 84.4C227.232 84.4 227.832 84.5 228.432 84.7C229.032 84.9 229.932 85.3 230.932 85.7C234.332 87.2 238.032 88.4 241.932 89.2C245.932 90 249.832 90.4 253.832 90.4C260.132 90.4 265.032 89.3 268.432 87.1C271.832 84.9 273.632 81.7 273.632 77.6C273.632 74.8 272.732 72.5 270.932 70.6C269.132 68.7 265.732 67 260.832 65.4L246.332 60.9C239.032 58.6 233.632 55.2 230.332 50.7C227.032 46.3 225.332 41.4 225.332 36.2C225.332 32 226.232 28.3 228.032 25.1C229.832 21.9 232.232 19.1 235.232 16.9C238.232 14.6 241.632 12.9 245.632 11.7C249.632 10.5 253.832 10 258.232 10C260.432 10 262.732 10.1 264.932 10.4C267.232 10.7 269.332 11.1 271.432 11.5C273.432 12 275.332 12.5 277.132 13.1C278.932 13.7 280.332 14.3 281.332 14.9C282.732 15.7 283.732 16.5 284.332 17.4C284.932 18.2 285.232 19.3 285.232 20.7V25.4C285.232 27.5 284.432 28.6 282.932 28.6C282.132 28.6 280.832 28.2 279.132 27.4C273.432 24.8 267.032 23.5 259.932 23.5C254.232 23.5 249.732 24.4 246.632 26.3C243.532 28.2 241.932 31.1 241.932 35.2C241.932 38 242.932 40.4 244.932 42.3C246.932 44.2 250.632 46.1 255.932 47.8L270.132 52.3C277.332 54.6 282.532 57.8 285.632 61.9C288.732 66 290.232 70.7 290.232 75.9C290.232 80.2 289.332 84.1 287.632 87.5C285.832 90.9 283.432 93.9 280.332 96.3C277.232 98.8 273.532 100.6 269.232 101.9C264.732 103.3 260.032 104 254.932 104Z" fill="#252F3E"/>
<path fill-rule="evenodd" clip-rule="evenodd" d="M273.832 152.6C240.932 176.9 193.132 189.8 152.032 189.8C94.432 189.8 42.532 168.5 3.33202 133.1C0.232017 130.3 3.03202 126.5 6.73202 128.7C49.132 153.3 101.432 168.2 155.532 168.2C192.032 168.2 232.132 160.6 269.032 145C274.532 142.5 279.232 148.6 273.832 152.6Z" fill="#FF9900"/>
<path fill-rule="evenodd" clip-rule="evenodd" d="M287.532 137C283.332 131.6 259.732 134.4 249.032 135.7C245.832 136.1 245.332 133.3 248.232 131.2C267.032 118 297.932 121.8 301.532 126.2C305.132 130.7 300.532 161.6 282.932 176.4C280.232 178.7 277.632 177.5 278.832 174.5C282.832 164.6 291.732 142.3 287.532 137Z" fill="#FF9900"/>
</svg>
