<svg width="126" height="129" viewBox="0 0 126 129" fill="none" xmlns="http://www.w3.org/2000/svg">
<path d="M79.092 100.521C97.258 98.5029 114.385 88.8229 123.815 72.6669C119.349 112.628 75.653 137.885 39.9858 122.378C36.6992 120.953 33.8702 118.582 31.9288 115.534C23.9134 102.948 21.2786 86.9329 25.0644 72.3989C35.881 91.0669 57.8748 102.51 79.092 100.521Z" fill="#F3B01C"/>
<path d="M24.4012 60.6736C17.0375 77.6911 16.7186 97.6141 25.7463 114.01C-6.02407 90.1081 -5.67737 38.9579 25.358 15.295C28.2286 13.1079 31.64 11.8098 35.2178 11.6122C49.9312 10.8361 64.8804 16.5226 75.364 27.1194C54.0637 27.3311 33.318 40.9757 24.4012 60.6736Z" fill="#8D2676"/>
<path d="M85.637 32.3552C74.89 17.3701 58.0686 7.16837 39.6387 6.85796C75.264 -9.31244 119.085 16.9045 123.856 55.6654C124.3 59.2635 123.717 62.9322 122.122 66.1775C115.466 79.695 103.124 90.179 88.702 94.059C99.269 74.46 97.965 50.5151 85.637 32.3552Z" fill="#EE342F"/>
</svg>
