<svg width="206" height="121" viewBox="0 0 206 121" fill="none" xmlns="http://www.w3.org/2000/svg">
<g clip-path="url(#clip0_241_2)">
<path d="M15.5 46.2342C15.1 46.2342 15 46.0342 15.2 45.7342L17.3 43.0342C17.5 42.7342 18 42.5342 18.4 42.5342H54.1C54.5 42.5342 54.6 42.8342 54.4 43.1342L52.7 45.7342C52.5 46.0342 52 46.3342 51.7 46.3342L15.5 46.2342Z" fill="#00ACD7"/>
<path d="M0.400001 55.4344C8.34465e-07 55.4344 -0.1 55.2344 0.0999997 54.9344L2.2 52.2344C2.4 51.9344 2.9 51.7344 3.3 51.7344H48.9C49.3 51.7344 49.5 52.0344 49.4 52.3344L48.6 54.7344C48.5 55.1344 48.1 55.3344 47.7 55.3344L0.400001 55.4344Z" fill="#00ACD7"/>
<path d="M24.6 64.6346C24.2 64.6346 24.1 64.3346 24.3 64.0346L25.7 61.5346C25.9 61.2346 26.3 60.9346 26.7 60.9346H46.7C47.1 60.9346 47.3 61.2346 47.3 61.6346L47.1 64.0346C47.1 64.4346 46.7 64.7346 46.4 64.7346L24.6 64.6346Z" fill="#00ACD7"/>
<path d="M128.4 44.4343C122.1 46.0343 117.8 47.2343 111.6 48.8343C110.1 49.2343 110 49.3343 108.7 47.8343C107.2 46.1343 106.1 45.0343 104 44.0343C97.7 40.9343 91.6 41.8343 85.9 45.5343C79.1 49.9343 75.6 56.4343 75.7 64.5343C75.8 72.5343 81.3 79.1343 89.2 80.2343C96 81.1343 101.7 78.7343 106.2 73.6343C107.1 72.5343 107.9 71.3343 108.9 69.9343C105.3 69.9343 100.8 69.9343 89.6 69.9343C87.5 69.9343 87 68.6343 87.7 66.9343C89 63.8343 91.4 58.6343 92.8 56.0343C93.1 55.4343 93.8 54.4343 95.3 54.4343C100.4 54.4343 119.2 54.4343 131.7 54.4343C131.5 57.1343 131.5 59.8343 131.1 62.5343C130 69.7343 127.3 76.3343 122.9 82.1343C115.7 91.6343 106.3 97.5343 94.4 99.1343C84.6 100.434 75.5 98.5343 67.5 92.5343C60.1 86.9343 55.9 79.5343 54.8 70.3343C53.5 59.4343 56.7 49.6343 63.3 41.0343C70.4 31.7343 79.8 25.8343 91.3 23.7343C100.7 22.0343 109.7 23.1343 117.8 28.6343C123.1 32.1343 126.9 36.9343 129.4 42.7343C130 43.6343 129.6 44.1343 128.4 44.4343Z" fill="#00ACD7"/>
<path d="M161.5 99.7341C152.4 99.5341 144.1 96.9341 137.1 90.9341C131.2 85.8341 127.5 79.3341 126.3 71.6341C124.5 60.3341 127.6 50.3341 134.4 41.4341C141.7 31.8341 150.5 26.8341 162.4 24.7341C172.6 22.9341 182.2 23.9341 190.9 29.8341C198.8 35.2341 203.7 42.5341 205 52.1341C206.7 65.6341 202.8 76.6341 193.5 86.0341C186.9 92.7341 178.8 96.9341 169.5 98.8341C166.8 99.3341 164.1 99.4341 161.5 99.7341ZM185.3 59.3341C185.2 58.0341 185.2 57.0341 185 56.0341C183.2 46.1341 174.1 40.5341 164.6 42.7341C155.3 44.8341 149.3 50.7341 147.1 60.1341C145.3 67.9341 149.1 75.8341 156.3 79.0341C161.8 81.4341 167.3 81.1341 172.6 78.4341C180.5 74.3341 184.8 67.9341 185.3 59.3341Z" fill="#00ACD7"/>
</g>
<defs>
<clipPath id="clip0_241_2">
<rect width="205" height="121" fill="white" transform="translate(0.195007)"/>
</clipPath>
</defs>
</svg>
