<?xml version="1.0" encoding="UTF-8"?>
<svg version="1.1" xmlns="http://www.w3.org/2000/svg" width="200" height="200">
<path d="M0 0 C66 0 132 0 200 0 C200 66 200 132 200 200 C134 200 68 200 0 200 C0 134 0 68 0 0 Z " fill="#F8F9FB" transform="translate(0,0)"/>
<path d="M0 0 C13.86 0 27.72 0 42 0 C42 13.53 42 27.06 42 41 C55.53 41 69.06 41 83 41 C83 54.86 83 68.72 83 83 C69.47 83 55.94 83 42 83 C42 96.53 42 110.06 42 124 C28.14 124 14.28 124 0 124 C0 110.47 0 96.94 0 83 C-13.53 83 -27.06 83 -41 83 C-41 69.14 -41 55.28 -41 41 C-27.47 41 -13.94 41 0 41 C0 27.47 0 13.94 0 0 Z " fill="#F2F3F5" transform="translate(79,38)"/>
<path d="M0 0 C13.86 0 27.72 0 42 0 C42 13.53 42 27.06 42 41 C28.14 41 14.28 41 0 41 C0 27.47 0 13.94 0 0 Z " fill="#100F10" transform="translate(79,121)"/>
<path d="M0 0 C13.53 0 27.06 0 41 0 C41 13.86 41 27.72 41 42 C27.47 42 13.94 42 0 42 C0 28.14 0 14.28 0 0 Z " fill="#110F10" transform="translate(121,79)"/>
<path d="M0 0 C13.53 0 27.06 0 41 0 C41 13.86 41 27.72 41 42 C27.47 42 13.94 42 0 42 C0 28.14 0 14.28 0 0 Z " fill="#110F10" transform="translate(38,79)"/>
<path d="M0 0 C13.86 0 27.72 0 42 0 C42 13.53 42 27.06 42 41 C28.14 41 14.28 41 0 41 C0 27.47 0 13.94 0 0 Z " fill="#110F10" transform="translate(79,38)"/>
</svg>
