<?xml version="1.0" encoding="UTF-8"?>
<svg version="1.1" xmlns="http://www.w3.org/2000/svg" width="225" height="225">
<path d="M0 0 C74.25 0 148.5 0 225 0 C225 74.25 225 148.5 225 225 C150.75 225 76.5 225 0 225 C0 150.75 0 76.5 0 0 Z " fill="#000000" transform="translate(0,0)"/>
<path d="M0 0 C1.68638077 -0.01485695 1.68638077 -0.01485695 3.40682983 -0.03001404 C4.6308551 -0.02551239 5.85488037 -0.02101074 7.11599731 -0.01637268 C8.41246185 -0.02323593 9.70892639 -0.03009918 11.04467773 -0.03717041 C14.59439711 -0.05509506 18.14386919 -0.05393459 21.6936202 -0.04822803 C24.66071125 -0.0451345 27.62775491 -0.05123059 30.59483922 -0.05726677 C37.59737482 -0.07130871 44.59978842 -0.06975411 51.60232544 -0.05836487 C58.8170717 -0.04688948 66.03144599 -0.06095004 73.24614322 -0.08776134 C79.44845182 -0.10994411 85.65064388 -0.11654978 91.85298932 -0.11068493 C95.55379526 -0.1073196 99.2543629 -0.10970166 102.95513535 -0.12693596 C107.08451498 -0.14532713 111.21317491 -0.13119165 115.34255981 -0.11402893 C117.17252502 -0.12853088 117.17252502 -0.12853088 119.03945923 -0.14332581 C125.64316694 -0.0858498 130.14886873 0.13926231 135.3586731 4.38768005 C138.19627572 8.60316588 138.75528177 12.05368159 138.85794067 17.07640076 C138.889991 18.38828873 138.92204132 19.7001767 138.95506287 21.05181885 C138.97292885 22.47234462 138.98892967 23.8928949 139.00320435 25.3134613 C139.01779977 26.39713014 139.01779977 26.39713014 139.03269005 27.50269127 C139.08336871 31.3256151 139.11621945 35.14820846 139.13430786 38.97142029 C139.1563341 42.90000822 139.23879074 46.82486507 139.33542347 50.75222492 C139.39912634 53.79198071 139.4176244 56.83085534 139.42426109 59.87122154 C139.43511413 61.31816555 139.46257897 62.76509229 139.50766945 64.21137428 C139.83211039 75.37065363 139.83211039 75.37065363 136.58325195 79.81809998 C134.22268677 81.92210388 134.22268677 81.92210388 131.46833801 84.01022339 C127.79138061 86.82139665 124.62977217 89.95162245 121.38015747 93.23680115 C120.09349247 94.52092747 118.80649601 95.80472176 117.51919556 97.08821106 C116.16347675 98.44571876 114.80788895 99.80335729 113.4524231 101.16111755 C112.0367566 102.5761091 110.6209418 103.99095229 109.20498657 105.40565491 C106.25849642 108.35068045 103.3137984 111.29748286 100.37039185 114.24559021 C96.59655247 118.02516304 92.81819115 121.80017868 89.03850555 125.57390404 C86.12340739 128.48539437 83.21068796 131.39925501 80.2986908 134.31384659 C78.90554703 135.70765711 77.51166094 137.10072607 76.11701965 138.49303818 C74.17626302 140.43126071 72.2387311 142.37264995 70.30203247 144.31492615 C69.43871307 145.1752092 69.43871307 145.1752092 68.55795288 146.0528717 C66.21662959 148.40672741 64.20686211 150.61539653 62.3586731 153.38768005 C59.62168884 153.77536011 59.62168884 153.77536011 56.09231567 153.79173279 C54.11434746 153.81075905 54.11434746 153.81075905 52.09642029 153.83016968 C50.64868006 153.82811739 49.2009409 153.82512866 47.75320435 153.8212738 C46.27067322 153.82583443 44.78814421 153.83113965 43.30561829 153.8371582 C40.19260089 153.84610641 37.07983973 153.84364995 33.96682739 153.83372498 C29.98991932 153.82227787 26.01390479 153.84237124 22.03711414 153.87164211 C18.97172982 153.89005805 15.90655702 153.88970025 12.84113121 153.88400459 C11.37600139 153.88385179 9.91085686 153.88986194 8.4457798 153.90229607 C-6.25230451 154.00938653 -6.25230451 154.00938653 -11.6413269 149.38768005 C-15.71461905 143.59278328 -15.07041021 137.29567031 -15.04537964 130.5009613 C-15.05224289 129.20274445 -15.05910614 127.90452759 -15.06617737 126.56697083 C-15.08407842 123.01737767 -15.08294645 119.46803213 -15.07723498 115.91840744 C-15.0741392 112.95117198 -15.08023979 109.98398382 -15.08627373 107.0167551 C-15.10030681 100.01568205 -15.09876738 93.01473106 -15.08737183 86.01365662 C-15.07588682 78.79830173 -15.0899752 71.58331837 -15.1167683 64.36801243 C-15.13893788 58.16485004 -15.14556002 51.96180418 -15.13969189 45.758605 C-15.13632467 42.05728694 -15.13872165 38.35620712 -15.15594292 34.65492249 C-15.17430855 30.52784244 -15.1602122 26.40148393 -15.14303589 22.2743988 C-15.15753784 20.44139725 -15.15753784 20.44139725 -15.17233276 18.57136536 C-15.08029492 8.02306521 -15.08029492 8.02306521 -10.6413269 3.38768005 C-6.9707975 0.78359468 -4.48133756 0.01117456 0 0 Z " fill="#020202" transform="translate(50.641326904296875,35.61231994628906)"/>
<path d="M0 0 C8.4843799 -0.09288948 16.96854552 -0.16386033 25.45330906 -0.20724869 C29.39361664 -0.22807839 33.33357501 -0.2563104 37.27368164 -0.30175781 C41.07977137 -0.34538211 44.8855263 -0.36917181 48.69184685 -0.37950897 C50.14027104 -0.38687079 51.58867796 -0.40124672 53.03695869 -0.42292023 C67.59580757 -0.63202748 67.59580757 -0.63202748 73 4 C75.61119441 8.34435491 76.39626122 11.64900154 76.49926758 16.6887207 C76.5313179 18.00060867 76.56336823 19.31249664 76.59638977 20.66413879 C76.61425576 22.08466457 76.63025658 23.50521485 76.64453125 24.92578125 C76.65912667 26.00945008 76.65912667 26.00945008 76.67401695 27.11501122 C76.72469562 30.93793505 76.75754635 34.76052841 76.77563477 38.58374023 C76.79766101 42.51232816 76.88011765 46.43718501 76.97675037 50.36454487 C77.04045324 53.40430066 77.05895131 56.44317529 77.065588 59.48354149 C77.07644104 60.9304855 77.10390588 62.37741224 77.14899635 63.82369423 C77.4734373 74.98297357 77.4734373 74.98297357 74.22457886 79.43041992 C71.86401367 81.53442383 71.86401367 81.53442383 69.10966492 83.62254333 C65.43270752 86.4337166 62.27109908 89.5639424 59.02148438 92.84912109 C57.73481937 94.13324742 56.44782292 95.41704171 55.16052246 96.70053101 C53.80480366 98.0580387 52.44921585 99.41567724 51.09375 100.7734375 C49.6780835 102.18842905 48.2622687 103.60327223 46.84631348 105.01797485 C43.89982332 107.9630004 40.95512531 110.9098028 38.01171875 113.85791016 C34.23787937 117.63748299 30.45951805 121.41249862 26.67983246 125.18622398 C23.7647343 128.09771431 20.85201486 131.01157495 17.9400177 133.92616653 C16.54687393 135.31997705 15.15298784 136.71304602 13.75834656 138.10535812 C11.81758992 140.04358065 9.88005801 141.98496989 7.94335938 143.92724609 C7.08003998 144.78752914 7.08003998 144.78752914 6.19927979 145.66519165 C3.8579565 148.01904735 1.84818901 150.22771648 0 153 C-2.73698425 153.38768005 -2.73698425 153.38768005 -6.26635742 153.40405273 C-8.24432564 153.42307899 -8.24432564 153.42307899 -10.26225281 153.44248962 C-11.70999304 153.44043734 -13.1577322 153.43744861 -14.60546875 153.43359375 C-16.08799988 153.43815438 -17.57052888 153.44345959 -19.05305481 153.44947815 C-22.1660722 153.45842635 -25.27883336 153.4559699 -28.3918457 153.44604492 C-32.36875378 153.43459781 -36.3447683 153.45469118 -40.32155895 153.48396206 C-43.38694327 153.502378 -46.45211608 153.5020202 -49.51754189 153.49632454 C-50.9826717 153.49617174 -52.44781624 153.50218189 -53.9128933 153.51461601 C-68.6109776 153.62170648 -68.6109776 153.62170648 -74 149 C-76.66080802 144.60397122 -77.36993146 141.36807435 -77.34057617 136.26025391 C-77.34101425 135.61564209 -77.34145233 134.97103027 -77.34190369 134.30688477 C-77.33982956 132.19645885 -77.31656576 130.08684797 -77.29296875 127.9765625 C-77.28736785 126.50540602 -77.28310009 125.03424392 -77.28010559 123.56307983 C-77.26869557 119.70620048 -77.23926212 115.84966441 -77.20599365 111.99291992 C-77.1752094 108.05131676 -77.16158247 104.10965769 -77.14648438 100.16796875 C-77.11438818 92.44515664 -77.0632391 84.72262657 -77 77 C-76.34 77 -75.68 77 -75 77 C-73.7948761 78.22389221 -73.7948761 78.22389221 -72.30200195 80.06469727 C-66.32977032 87.07940853 -59.68311046 93.46042907 -53.16796875 99.96484375 C-51.72530259 101.40818434 -50.28278483 102.85167329 -48.84040833 104.29530334 C-45.83215699 107.30502225 -42.822121 110.31294157 -39.81079102 113.31958008 C-35.94586896 117.1787745 -32.08549516 121.04248267 -28.2264204 124.90752316 C-25.2557744 127.88177398 -22.28276167 130.85364981 -19.30901527 133.82480049 C-17.88367571 135.24947216 -16.45908086 136.67488928 -15.03523827 138.10105705 C-13.05348424 140.0853396 -11.06857244 142.06640733 -9.08276367 144.04663086 C-8.49315353 144.63826523 -7.9035434 145.2298996 -7.29606628 145.83946228 C-4.42132339 148.78044554 -4.42132339 148.78044554 -1 151 C-1.02331642 149.7863678 -1.02331642 149.7863678 -1.04710388 148.54821777 C-1.18775177 140.89842155 -1.29413143 133.24925791 -1.3626852 125.59850311 C-1.39911599 121.66569061 -1.44847336 117.7339522 -1.52807617 113.80175781 C-1.60450919 110.00207577 -1.64606657 106.20342223 -1.6641407 102.4030304 C-1.67700904 100.95811277 -1.70213935 99.5132473 -1.7401104 98.06877136 C-2.06090676 85.35170062 -2.06090676 85.35170062 2.41772461 80.11132812 C6.41924869 76.28231742 8.75464175 75.87595939 14.28564453 75.88647461 C14.92967224 75.88632858 15.57369995 75.88618256 16.23724365 75.8860321 C18.36913402 75.8867296 20.50093737 75.89451434 22.6328125 75.90234375 C24.10968986 75.90420851 25.58656784 75.90563214 27.06344604 75.90663147 C30.95312199 75.91045208 34.84276067 75.92027848 38.73242188 75.93133545 C42.70051571 75.94155936 46.66861555 75.94613119 50.63671875 75.95117188 C58.42449616 75.96190115 66.21224286 75.97897211 74 76 C67.26646317 67.83894807 59.64648566 60.50135996 52.16796875 53.03515625 C50.72530259 51.59181566 49.28278483 50.14832671 47.84040833 48.70469666 C44.83215699 45.69497775 41.822121 42.68705843 38.81079102 39.68041992 C34.94586896 35.8212255 31.08549516 31.95751733 27.2264204 28.09247684 C24.2557744 25.11822602 21.28276167 22.14635019 18.30901527 19.17519951 C16.88367571 17.75052784 15.45908086 16.32511072 14.03523827 14.89894295 C12.05348424 12.9146604 10.06857244 10.93359267 8.08276367 8.95336914 C7.49315353 8.36173477 6.9035434 7.7701004 6.29606628 7.16053772 C3.42132339 4.21955446 3.42132339 4.21955446 0 2 C0 1.34 0 0.68 0 0 Z " fill="#FEFEFE" transform="translate(113,36)"/>
<path d="M0 0 C0.65421936 -0.00043808 1.30843872 -0.00087616 1.98248291 -0.00132751 C4.13080372 0.00075161 6.27833031 0.02403956 8.42651367 0.04760742 C9.92151971 0.05320653 11.41653128 0.05747514 12.9115448 0.06047058 C16.83583928 0.07189466 20.75979774 0.10134044 24.68395996 0.13458252 C28.69249934 0.16533624 32.70109331 0.17898721 36.7097168 0.1940918 C44.56729243 0.22621284 52.42459556 0.27737926 60.28198242 0.34057617 C56.1430304 5.27405201 51.84226465 9.92452564 47.28271484 14.46923828 C46.61044861 15.14325684 45.93818237 15.81727539 45.24554443 16.51171875 C43.04533813 18.71629076 40.84153717 20.91722728 38.63745117 23.11791992 C37.10127898 24.6547662 35.56525522 26.19176086 34.02937317 27.72889709 C30.8226366 30.93710306 27.61411014 34.14350517 24.40429688 37.34863281 C20.28029713 41.46690677 16.16084157 45.58969254 12.04268932 49.71381283 C8.87820934 52.88189431 5.71136646 56.04760513 2.543787 59.21258736 C1.02272346 60.73298198 -0.49759254 62.25412484 -2.01716042 63.77601433 C-4.1309459 65.89232268 -6.24788114 68.0054275 -8.36572266 70.11767578 C-9.31399178 71.06898125 -9.31399178 71.06898125 -10.28141785 72.039505 C-14.60374949 76.34057617 -14.60374949 76.34057617 -15.71801758 76.34057617 C-15.81083611 67.70855798 -15.88184224 59.07671248 -15.92526627 50.44430351 C-15.94611128 46.43558965 -15.97437164 42.42721807 -16.01977539 38.41870117 C-16.06334457 34.54777808 -16.08717789 30.67718352 -16.09752655 26.80603409 C-16.10489818 25.33166459 -16.1192935 23.85731239 -16.14093781 22.38308334 C-16.17012115 20.31237158 -16.17396768 18.24300457 -16.17211914 16.17211914 C-16.18544281 14.40673294 -16.18544281 14.40673294 -16.19903564 12.60568237 C-15.46277508 7.6080137 -13.30772967 4.60526066 -9.38789368 1.48686218 C-6.08361049 0.0681995 -3.59451573 -0.020308 0 0 Z " fill="#FCFCFC" transform="translate(51.718017578125,35.659423828125)"/>
<path d="M0 0 C0.33 0 0.66 0 1 0 C1.15359569 8.71835122 1.30177736 17.43677244 1.4429636 26.15533352 C1.50868731 30.20329784 1.57630653 34.25121233 1.64819336 38.29907227 C1.71744285 42.20229387 1.78179731 46.10556777 1.84269524 50.0089283 C1.86685196 51.50136328 1.89280067 52.99377032 1.92053413 54.48614311 C1.95894837 56.56941224 1.99110544 58.65268787 2.02172852 60.73608398 C2.04171402 61.92411118 2.06169952 63.11213837 2.08229065 64.33616638 C2 67 2 67 1 68 C-1.08619022 68.09417773 -3.17560477 68.11742878 -5.26391602 68.11352539 C-6.2443689 68.11374443 -6.2443689 68.11374443 -7.24462891 68.1139679 C-9.41442128 68.11326883 -11.58412879 68.10547678 -13.75390625 68.09765625 C-15.25463311 68.09579205 -16.75536057 68.09436816 -18.25608826 68.09336853 C-22.21318226 68.08954352 -26.17023978 68.0797134 -30.12731934 68.06866455 C-34.16234849 68.05845006 -38.19738353 68.05387083 -42.23242188 68.04882812 C-50.15496469 68.03809111 -58.07747781 68.0210149 -66 68 C-66 67.67 -66 67.34 -66 67 C-44.55 66.67 -23.1 66.34 -1 66 C-0.67 44.22 -0.34 22.44 0 0 Z " fill="#A9A9A9" transform="translate(112,121)"/>
<path d="M0 0 C0.33 0 0.66 0 1 0 C1 22.11 1 44.22 1 67 C-1.82414162 68.41207081 -4.12844184 68.07574909 -7.28564453 68.02172852 C-7.92967224 68.01212097 -8.57369995 68.00251343 -9.23724365 67.99261475 C-11.36921007 67.95959357 -13.50097355 67.91927337 -15.6328125 67.87890625 C-17.10968304 67.85460816 -18.58656111 67.83076445 -20.06344604 67.80735779 C-23.95319193 67.74448579 -27.84280456 67.67542803 -31.73242188 67.60510254 C-35.70045903 67.53444718 -39.66859076 67.46961349 -43.63671875 67.40429688 C-51.42458377 67.27524439 -59.21231722 67.13966008 -67 67 C-67 66.67 -67 66.34 -67 66 C-45.22 65.67 -23.44 65.34 -1 65 C-0.67 43.55 -0.34 22.1 0 0 Z " fill="#A9A9A9" transform="translate(188,46)"/>
</svg>
